<svg width="123" height="69" viewBox="0 0 123 69" fill="none" xmlns="http://www.w3.org/2000/svg">
<g clip-path="url(#clip0_587_876)">
<path d="M0 12.418V10.545C0.595729 9.12216 1.80223 7.68134 3.61349 7.68134L23.0499 7.66333L23.077 3.81516C23.089 1.71697 24.7288 0 26.9372 0H80.6882C82.8846 0.0390221 84.5514 1.67795 84.5544 3.83017L84.5665 15.3387H107.37C108.925 15.3387 110.183 15.972 110.98 17.2988L122.401 36.2875C122.789 36.9329 123 37.8334 123 38.5868L122.994 57.5215C122.994 59.6647 121.276 61.3367 119.173 61.3457L114.582 61.3667C112.918 65.9503 108.651 68.964 103.892 69C99.1317 69.036 94.7209 66.1484 92.9879 61.3577H60.7614C59.0283 66.1454 54.6296 69.036 49.8577 68.997C45.0949 68.958 40.8345 65.9593 39.1617 61.3517L27.1448 61.3637C24.795 61.3637 22.9807 59.6857 23.0649 57.2724V46.034L18.9731 45.974C16.7436 45.941 15.2182 43.8548 15.3957 41.8527C15.5732 39.8505 17.2792 38.3167 19.4515 38.3287L23.0649 38.3497V30.6773L11.5234 30.6713C9.27893 30.6713 7.63917 28.8163 7.69634 26.7331C7.7535 24.722 9.35716 23.041 11.5265 23.005H23.0649V15.3417L3.6165 15.3237C1.80524 15.3237 0.598738 13.8798 0.00300873 12.415L0 12.418ZM114.66 38.3437L105.444 23.011H92.2447V38.3497L114.657 38.3437H114.66ZM49.0123 53.8294C46.7346 54.4388 45.6846 56.678 46.3074 58.6712C46.9302 60.6643 48.9792 61.7479 50.9288 61.2226C52.9838 60.6703 54.2204 58.6201 53.6788 56.549C53.1824 54.6459 51.1725 53.2531 49.0123 53.8294ZM102.82 53.8294C100.57 54.4328 99.4868 56.699 100.122 58.6622C100.756 60.6253 102.775 61.7509 104.746 61.2226C106.717 60.6943 108.044 58.5991 107.49 56.555C106.972 54.6429 104.999 53.2471 102.82 53.8294Z" fill="white"/>
</g>
<defs>
<clipPath id="clip0_587_876">
<rect width="123" height="69" fill="white"/>
</clipPath>
</defs>
</svg>
