<svg width="60" height="60" viewBox="0 0 60 60" fill="none" xmlns="http://www.w3.org/2000/svg">
<path d="M48.3333 38.5721L55.3794 41.3522C57.8558 42.3736 59.5019 44.7249 59.504 47.445L59.5102 52.8934C59.5143 56.4857 56.6549 59.5082 52.9983 59.531C39.6617 59.6076 26.8615 54.5652 17.0822 45.5639C6.21379 35.562 -0.0124048 21.4768 1.85563e-05 6.66865C0.00208912 2.95625 2.94643 -0.00413896 6.65896 4.34384e-06L12.0921 0.00621924C14.7673 0.00829089 17.0863 1.60553 18.1361 4.02522L20.9417 11.1206C22.3539 14.6901 20.275 18.5351 16.5149 19.7905C19.511 31.6362 27.8926 40.016 39.7321 43.0158C40.9745 39.3158 44.7408 37.1509 48.3353 38.57L48.3333 38.5721Z" fill="#960019"/>
</svg>
